# xmcd CD database file
#
# Track frame offsets:
#	150
#	13070
#	29021
#	56014
#	68918
#	90877
#	107404
#	132032
#	148385
#	169817
#
# Disc length: 2582 seconds
#
# Revision: 0
# Processed by: cddbd v1.5.2PL0 Copyright (c) Steve Scherf et al.
# Submitted via: CDex 1.51
#
DISCID=860a140a
DTITLE=Van Dyck Inc. - Further On Up The Road
DYEAR=2016
DGENRE=Blues
TTITLE0=Dear Sweet Goodness
TTITLE1=Hard Time
TTITLE2=Feels Like Rain
TTITLE3=It Ain`t Easy
TTITLE4=I Can Tell
TTITLE5=Into The Mystic
TTITLE6=Alone In The Dark
TTITLE7=Romance Without Finance
TTITLE8=The Jealous Kind
TTITLE9=Sweet Serenity
EXTD=YEAR: 2016
EXTT0=
EXTT1=
EXTT2=
EXTT3=
EXTT4=
EXTT5=
EXTT6=
EXTT7=
EXTT8=
EXTT9=
PLAYORDER=
